# xmcd CD database file
#
# Track frame offsets:
#	150
#	3921
#	20428
#	34958
#	41745
#	56147
#	72240
#	73928
#	85433
#	102233
#	105313
#	122346
#	122796
#	134547
#	148700
#	152756
#	165342
#	184542
#	187140
#	203475
#
# Disc length: 2759 seconds
#
# Revision: 1
# Processed by: cddbd v1.5.2PL0 Copyright (c) Steve Scherf et al.
# Submitted via: CDex 1.70beta2
#
DISCID=180ac514
DTITLE=Jerrod Niemann - Judge Jerrod and The Hung Jury
DYEAR=2010
DGENRE=Country
TTITLE0=Intro
TTITLE1=They Should Have Named You Cocaine
TTITLE2=Lover, Lover
TTITLE3=Phone Call at 3 A.M.
TTITLE4=Down In Mexico
TTITLE5=What Do You Want
TTITLE6=A Friendly Request
TTITLE7=The Buckin' Song
TTITLE8=Old School New Again
TTITLE9=Intermission
TTITLE10=Come Back To Me
TTITLE11=Drunken Complaint
TTITLE12=How Can I Be So Thirsty
TTITLE13=Bakersfield
TTITLE14=A Concerned Fan
TTITLE15=One More Drinkin' Song
TTITLE16=I Hope You Get What You Deserve
TTITLE17=Deep Thoughts
TTITLE18=For Everclear
TTITLE19=Outro
EXTD=YEAR: 2010
EXTT0=
EXTT1=
EXTT2=
EXTT3=
EXTT4=
EXTT5=
EXTT6=
EXTT7=
EXTT8=
EXTT9=
EXTT10=
EXTT11=
EXTT12=
EXTT13=
EXTT14=
EXTT15=
EXTT16=
EXTT17=
EXTT18=
EXTT19=
PLAYORDER=
